<?xml version="1.0" encoding="UTF-8" standalone="no"?>
<svg
   x="0"
   y="0"
   style="fill:none"
   width="259.48758"
   version="1.1"
   id="svg62"
   height="204.22479"
   xml:space="preserve"
   xmlns="http://www.w3.org/2000/svg"
   xmlns:svg="http://www.w3.org/2000/svg"><defs
     id="defs66" /><g
     style="fill:none"
     id="g3451"
     transform="translate(-233.5,-21.5)"><svg
       class="role-diagram-draw-area"
       style="overflow:visible"
       version="1.1"
       id="svg3307"
       width="100%"
       height="100%"><g
         class="shapes-region"
         style="fill:none;stroke:#000000"
         data-darkreader-inline-stroke=""
         data-darkreader-inline-fill=""
         id="g3299"><g
           class="arrow-line"
           id="g3259"><path
             class="connection real"
             stroke-dasharray="none"
             d="M 285,198 H 410"
             style="fill:none;fill-opacity:1;stroke:#000000;stroke-width:3"
             id="path3253" /><g
             stroke="none"
             fill="#000"
             transform="rotate(180,207.5,99)"
             style="fill:#000000;stroke:none;stroke-width:3"
             id="g3257"><path
               d="M 14.29,-6.86 0,0 14.29,6.86 Z"
               id="path3255" /></g></g><g
           class="composite-shape"
           id="g3263"><path
             class="real"
             d="m 235,198 c 0,-13.81 11.19,-25 25,-25 13.81,0 25,11.19 25,25 0,13.81 -11.19,25 -25,25 -13.81,0 -25,-11.19 -25,-25 z"
             style="fill:#4a800d;fill-opacity:1;stroke:#000000;stroke-width:3;stroke-opacity:1"
             data-darkreader-inline-stroke=""
             data-darkreader-inline-fill=""
             id="path3261" /></g><g
           class="composite-shape"
           id="g3267"><path
             class="real"
             d="m 415,198 c 0,-13.81 11.19,-25 25,-25 13.81,0 25,11.19 25,25 0,13.81 -11.19,25 -25,25 -13.81,0 -25,-11.19 -25,-25 z"
             style="fill:#02475e;fill-opacity:1;stroke:#000000;stroke-width:3;stroke-opacity:1"
             data-darkreader-inline-stroke=""
             data-darkreader-inline-fill=""
             id="path3265" /></g><g
           class="composite-shape"
           id="g3271"><path
             class="real"
             d="m 325,48 c 0,-13.81 11.19,-25 25,-25 13.81,0 25,11.19 25,25 0,13.81 -11.19,25 -25,25 -13.81,0 -25,-11.19 -25,-25 z"
             style="fill:#af6b58;fill-opacity:1;stroke:#000000;stroke-width:3;stroke-opacity:1"
             data-darkreader-inline-stroke=""
             data-darkreader-inline-fill=""
             id="path3269" /></g><g
           class="arrow-line"
           id="g3279"><path
             class="connection real"
             stroke-dasharray="none"
             d="M 426.75,176 365.82,74.29"
             style="fill:none;fill-opacity:1;stroke:#000000;stroke-width:3"
             data-darkreader-inline-stroke=""
             data-darkreader-inline-fill=""
             id="path3273" /><g
             stroke="none"
             transform="rotate(59.08,119.86335,355.49882)"
             style="fill:#000000;stroke:none;stroke-width:3"
             data-darkreader-inline-stroke=""
             fill="#000"
             id="g3277"><path
               d="M 14.29,-6.86 0,0 14.29,6.86 Z"
               id="path3275" /></g></g><g
           class="arrow-line"
           id="g3287"><path
             class="connection real"
             stroke-dasharray="none"
             d="M 336.25,71 274.83,172.72"
             style="fill:none;fill-opacity:1;stroke:#000000;stroke-width:3"
             id="path3281" /><g
             stroke="none"
             fill="#000"
             transform="rotate(-58.88,292.93113,-152.68909)"
             style="fill:#000000;stroke:none;stroke-width:3"
             id="g3285"><path
               d="M 14.29,-6.86 0,0 14.29,6.86 Z"
               id="path3283" /></g></g><g
           class="arrow-line"
           id="g3295"><path
             class="connection real"
             stroke-dasharray="none"
             d="M 455.75,177 C 501.32,90.27 459.01,47.72 379.89,47.93"
             style="fill:none;fill-opacity:1;stroke:#000000;stroke-width:3"
             id="path3289" /><g
             stroke="none"
             transform="rotate(-1.39,2165.9623,-15432.736)"
             style="fill:#000000;stroke:none;stroke-width:3"
             fill="#000"
             id="g3293"><path
               d="M 14.29,-6.86 0,0 14.29,6.86 Z"
               id="path3291" /></g></g><g
           id="g3297" /></g><g
         id="g3301" /><g
         id="g3303" /><g
         id="g3305" /></svg><svg
       width="700"
       height="253"
       style="font-family:Asana-Math, Asana"
       version="1.1"
       id="svg3379"><g
         id="g3317"><g
           id="g3315"><g
             id="g3313"><g
               transform="translate(432.5,207.69)"
               id="g3311"><path
                 transform="scale(0.03519,-0.03519)"
                 d="m 322,-11 c 12,0 21,2 50,10 11,62 19,96 30,143 H 380 L 358,82 c -6,-18 -18,-25 -39,-25 -12,0 -28,2 -49,7 l -18,4 c -33,7 -67,12 -86,12 -32,0 -59,-6 -95,-21 l 339,382 6,32 -9,9 -23,-23 c -10,-10 -20,-14 -34,-14 -34,0 -86,8 -134,21 l -18,5 c -28,7 -48,11 -62,11 -17,0 -37,-3 -61,-10 L 43,350 h 21 l 30,58 c 17,4 26,5 39,5 41,0 73,-15 126,-15 36,0 60,6 93,23 L -1,21 8,-6 c 29,23 56,32 91,32 63,0 154,-37 223,-37 z"
                 stroke="#ffffff"
                 stroke-opacity="1"
                 stroke-width="8"
                 fill="#ffffff"
                 fill-opacity="1"
                 id="path3309" /></g></g></g></g><g
         id="g3327"><g
           id="g3325"><g
             id="g3323"><g
               transform="translate(341,58.19)"
               id="g3321"><path
                 transform="scale(0.03519,-0.03519)"
                 d="m 9,1 c 15,-8 31,-12 43,-12 33,0 72,29 103,76 l 76,117 11,-69 c 13,-85 36,-124 72,-124 22,0 54,17 86,46 l 49,44 -9,19 C 404,68 379,53 363,53 c -15,0 -28,10 -38,30 -9,19 -20,56 -25,85 l -18,101 35,49 c 47,65 74,88 105,88 16,0 28,-8 33,-23 l 14,4 15,85 c -12,7 -21,10 -30,10 -40,0 -80,-36 -142,-128 l -37,-55 -6,48 c -12,99 -39,135 -98,135 -26,0 -48,-8 -57,-21 L 56,378 73,368 c 30,34 50,48 69,48 33,0 55,-41 72,-139 l 11,-62 -40,-62 C 142,86 108,54 80,54 65,54 54,58 52,63 L 41,91 21,88 C 21,53 13,27 9,1 Z"
                 stroke="#ffffff"
                 stroke-opacity="1"
                 stroke-width="8"
                 fill="#ffffff"
                 fill-opacity="1"
                 id="path3319" /></g></g></g></g><g
         id="g3337"><g
           id="g3335"><g
             id="g3333"><g
               transform="translate(252,207.19)"
               id="g3331"><path
                 transform="scale(0.03519,-0.03519)"
                 d="m -7,-180 c -1,-7 -1,-13 -1,-18 0,-43 37,-78 82,-78 106,0 216,124 275,309 l 141,440 -11,9 C 450,471 427,465 405,463 L 370,331 C 358,284 323,211 290,162 255,111 206,67 184,67 c -12,0 -21,23 -20,48 l 16,207 c 2,31 4,69 4,97 0,45 -7,63 -24,63 -13,0 -27,-7 -75,-40 L 3,386 14,368 64,398 c 5,3 16,12 25,12 14,0 22,-19 22,-52 0,-1 0,-7 -1,-15 L 93,100 92,60 c 0,-42 18,-71 43,-71 37,0 121,85 196,198 L 282,16 c -51,-177 -101,-250 -171,-250 -35,0 -62,27 -62,62 0,5 1,13 2,22 l -10,4 z"
                 stroke="#ffffff"
                 stroke-opacity="1"
                 stroke-width="8"
                 fill="#ffffff"
                 fill-opacity="1"
                 id="path3329" /></g></g></g></g><g
         id="g3347"><g
           id="g3345"><g
             id="g3343"><g
               transform="translate(279.25,117.48)"
               id="g3341"><path
                 transform="scale(0.02448,-0.02448)"
                 d="M 567,55 C 567,39 552,30 524,28 L 480,25 V -3 c 102,3 102,3 122,3 20,0 20,0 122,-3 v 28 l -26,3 c -47,7 -48,7 -56,52 L 555,705 H 509 L 136,112 C 100,56 82,40 48,32 L 28,27 V -3 c 92,3 92,3 112,3 19,0 21,0 107,-3 v 28 l -52,3 c -16,1 -31,10 -31,19 0,8 7,22 26,55 L 292,277 H 538 L 563,89 v -3 c 0,-2 4,-17 4,-31 z M 496,601 533,313 H 317 Z"
                 stroke="#000000"
                 stroke-opacity="1"
                 stroke-width="8"
                 fill="#000000"
                 fill-opacity="1"
                 id="path3339" /></g></g></g></g><g
         id="g3357"><g
           id="g3355"><g
             id="g3353"><g
               transform="translate(339.75,225.48)"
               id="g3351"><path
                 transform="scale(0.02448,-0.02448)"
                 d="m 543,227 c 0,110 -84,126 -166,138 57,20 82,32 113,60 46,39 69,86 69,137 0,82 -58,130 -158,130 -2,0 -12,0 -27,-1 l -63,-1 c -12,-1 -48,-1 -60,-1 -19,0 -50,1 -99,2 l -52,1 -3,-28 53,-2 c 24,-1 35,-9 35,-27 0,-14 -4,-46 -9,-76 L 89,55 C 85,37 73,30 31,23 l -5,-26 37,1 c 27,2 42,2 54,2 11,0 37,-1 63,-2 l 37,-1 20,-1 c 19,-1 32,-2 40,-2 115,0 266,93 266,233 z M 166,41 217,340 h 85 C 405,340 455,298 455,211 455,108 382,34 282,34 c -54,0 -75,4 -116,7 z m 186,614 c 81,0 121,-36 121,-111 0,-105 -74,-168 -198,-168 h -52 l 49,274 c 16,0 57,5 80,5 z"
                 stroke="#000000"
                 stroke-opacity="1"
                 stroke-width="8"
                 fill="#000000"
                 fill-opacity="1"
                 id="path3349" /></g></g></g></g><g
         id="g3367"><g
           id="g3365"><g
             id="g3363"><g
               transform="translate(398.75,119.48)"
               id="g3361"><path
                 transform="scale(0.02448,-0.02448)"
                 d="M 45,284 C 45,90 152,-18 343,-18 c 96,0 167,23 257,85 0,0 10,36 10,36 0,0 -10,7 -10,7 C 506,53 454,35 376,35 219,35 133,131 133,309 c 0,138 57,344 285,344 71,0 123,-14 179,-50 v -84 h 27 c 5,57 13,100 27,146 -76,29 -133,41 -195,41 C 276,706 45,578 45,284 Z"
                 stroke="#000000"
                 stroke-opacity="1"
                 stroke-width="8"
                 fill="#000000"
                 fill-opacity="1"
                 id="path3359" /></g></g></g></g><g
         id="g3377"><g
           id="g3375"><g
             id="g3373"><g
               transform="translate(474.75,78.48)"
               id="g3371"><path
                 transform="scale(0.02448,-0.02448)"
                 d="m 316,-3 c 72,0 121,11 173,37 156,80 252,231 252,397 0,98 -30,168 -91,211 -46,33 -131,51 -226,50 l -204,-3 h -10 c -9,0 -12,0 -113,3 l -3,-28 53,-2 c 24,-1 35,-9 35,-27 0,-14 -4,-46 -9,-76 L 86,55 C 81,31 56,29 33,23 l -5,-26 93,3 h 55 c 35,0 106,-3 140,-3 z m 68,658 C 566,655 649,579 649,415 649,225 549,41 329,41 c -44,0 -93,5 -161,15 0,12 1,19 4,37 l 96,557 c 23,0 81,5 116,5 z"
                 stroke="#000000"
                 stroke-opacity="1"
                 stroke-width="8"
                 fill="#000000"
                 fill-opacity="1"
                 id="path3369" /></g></g></g></g></svg></g></svg>
