<svg xmlns="http://www.w3.org/2000/svg" xmlns:xlink="http://www.w3.org/1999/xlink" x="0" y="0" width="702" height="348.9921875" style="
        width:702px;
        height:348.9921875px;
        background: transparent;
        fill: none;
">
        
        
        <svg xmlns="http://www.w3.org/2000/svg" class="role-diagram-draw-area" style="overflow: visible;"><g class="shapes-region" style="stroke: black; fill: none;"><g class="arrow-line"><path class="connection real" stroke-dasharray="" d="  M21.45,124.42 C39.04,110 75.08,51.98 157.15,42.5 C239.22,33.02 694.3,121.33 674.51,22.4" style="stroke: rgb(125, 125, 125); stroke-opacity: 1; stroke-width: 3; fill: none; fill-opacity: 1;"/></g><g class="arrow-line"><path class="connection real" stroke-dasharray="9 6" d="  M21.45,124.42 C39.04,110 84.03,101.96 166.1,92.48 C248.17,83 694.3,121.33 674.51,22.4" style="stroke: rgb(125, 125, 125); stroke-opacity: 1; stroke-width: 3; fill: none; fill-opacity: 1;"/></g><g class="arrow-line"><path class="connection real" stroke-dasharray="9 6" d="  M21.45,124.42 C39.04,110 145.29,167.91 227.35,158.43 C309.42,148.95 694.3,121.33 674.51,22.4" style="stroke: rgb(125, 125, 125); stroke-opacity: 1; stroke-width: 3; fill: none; fill-opacity: 1;"/></g><g class="arrow-line"><path class="connection real" stroke-dasharray="9 6" d="  M21.45,124.42 C39.04,110 102.88,254.48 184.95,245 C224.46,240.43 343.97,211.6 455.1,171.89 C574.8,129.11 684.77,73.7 674.51,22.4" style="stroke: rgb(125, 125, 125); stroke-opacity: 1; stroke-width: 3; fill: none; fill-opacity: 1;"/></g><g class="arrow-line"><path class="connection real" stroke-dasharray="" d="  M21.45,124.42 C39.04,110 91.57,329.19 173.64,319.71 C255.71,310.23 694.3,121.33 674.51,22.4" style="stroke: rgb(125, 125, 125); stroke-opacity: 1; stroke-width: 3; fill: none; fill-opacity: 1;"/></g><g class="composite-shape"><path class="real" d=" M669.68,22.4 C669.68,19.8 671.84,17.7 674.51,17.7 C677.17,17.7 679.33,19.8 679.33,22.4 C679.33,25 677.17,27.1 674.51,27.1 C671.84,27.1 669.68,25 669.68,22.4 Z" style="stroke-width: 2; stroke: rgb(125, 125, 125); stroke-opacity: 1; fill: rgb(186, 140, 226); fill-opacity: 1;"/></g><g class="composite-shape"><path class="real" d=" M16.62,124.42 C16.62,121.83 18.78,119.72 21.45,119.72 C24.11,119.72 26.27,121.83 26.27,124.42 C26.27,127.02 24.11,129.13 21.45,129.13 C18.78,129.13 16.62,127.02 16.62,124.42 Z" style="stroke-width: 2; stroke: rgb(125, 125, 125); stroke-opacity: 1; fill: rgb(191, 97, 106); fill-opacity: 1;"/></g><g class="composite-shape"><path class="real" d=" M152.32,42.34 C152.32,39.83 154.4,37.79 156.97,37.79 C159.54,37.79 161.62,39.83 161.62,42.34 C161.62,44.85 159.54,46.89 156.97,46.89 C154.4,46.89 152.32,44.85 152.32,42.34 Z" style="stroke-width: 2; stroke: rgb(125, 125, 125); stroke-opacity: 1; fill: rgb(104, 157, 106); fill-opacity: 1;"/></g><g class="composite-shape"><path class="real" d=" M171.99,157.35 C171.99,154.76 174.15,152.65 176.81,152.65 C179.48,152.65 181.64,154.76 181.64,157.35 C181.64,159.95 179.48,162.06 176.81,162.06 C174.15,162.06 171.99,159.95 171.99,157.35 Z" style="stroke-width: 2; stroke: rgb(125, 125, 125); stroke-opacity: 1; fill: rgb(214, 93, 14); fill-opacity: 1;"/></g><g class="composite-shape"><path class="real" d=" M190.8,314.8 C190.8,312.28 192.88,310.25 195.45,310.25 C198.02,310.25 200.1,312.28 200.1,314.8 C200.1,317.31 198.02,319.34 195.45,319.34 C192.88,319.34 190.8,317.31 190.8,314.8 Z" style="stroke-width: 2; stroke: rgb(125, 125, 125); stroke-opacity: 1; fill: rgb(74, 144, 226); fill-opacity: 1;"/></g><g/></g><g/><g/><g/></svg>
        <svg xmlns="http://www.w3.org/2000/svg" xmlns:xlink="http://www.w3.org/1999/xlink" width="700" height="346.9921875" style="width:700px;height:346.9921875px;font-family:Asana-Math, Asana;background:transparent;"><g><g><g><g transform="matrix(1,0,0,1,7.390625,116.7534375)"><path transform="matrix(0.024480000000000002,0,0,-0.024480000000000002,0,0)" d="M9 1C24 -7 40 -11 52 -11C85 -11 124 18 155 65L231 182L242 113C255 28 278 -11 314 -11C336 -11 368 6 400 35L449 79L440 98C404 68 379 53 363 53C348 53 335 63 325 83C316 102 305 139 300 168L282 269L317 318C364 383 391 406 422 406C438 406 450 398 455 383L469 387L484 472C472 479 463 482 454 482C414 482 374 446 312 354L275 299L269 347C257 446 230 482 171 482C145 482 123 474 114 461L56 378L73 368C103 402 123 416 142 416C175 416 197 375 214 277L225 215L185 153C142 86 108 54 80 54C65 54 54 58 52 63L41 91L21 88C21 53 13 27 9 1Z" stroke="rgb(125,125,125)" stroke-opacity="1" stroke-width="8" fill="rgb(125,125,125)" fill-opacity="1"></path></g></g></g></g><g><g><g><g transform="matrix(1,0,0,1,682.0234375,41.769062500000004)"><path transform="matrix(0.024480000000000002,0,0,-0.024480000000000002,0,0)" d="M-7 -180C-8 -187 -8 -193 -8 -198C-8 -241 29 -276 74 -276C180 -276 290 -152 349 33L490 473L479 482C450 471 427 465 405 463L370 331C358 284 323 211 290 162C255 111 206 67 184 67C172 67 163 90 164 115L180 322C182 353 184 391 184 419C184 464 177 482 160 482C147 482 133 475 85 442L3 386L14 368L64 398C69 401 80 410 89 410C103 410 111 391 111 358C111 357 111 351 110 343L93 100L92 60C92 18 110 -11 135 -11C172 -11 256 74 331 187L282 16C231 -161 181 -234 111 -234C76 -234 49 -207 49 -172C49 -167 50 -159 51 -150L41 -146Z" stroke="rgb(125,125,125)" stroke-opacity="1" stroke-width="8" fill="rgb(125,125,125)" fill-opacity="1"></path></g></g></g></g><g><g><g><g transform="matrix(1,0,0,1,169.640625,26.2378125)"><path transform="matrix(0.024480000000000002,0,0,-0.024480000000000002,0,0)" d="M154 473C89 473 51 426 18 377C18 371 27 368 30 365L30 366C54 394 74 412 111 412C206 412 215 290 214 220C212 136 203 53 186 -29C140 -86 92 -181 65 -249C69 -257 74 -265 77 -273C98 -268 119 -260 139 -251C165 -183 189 -106 203 -36C387 199 540 317 547 438C550 493 485 453 459 446L459 435C502 284 287 130 220 19L220 23C302 358 258 473 154 473Z" stroke="rgb(125,125,125)" stroke-opacity="1" stroke-width="8" fill="rgb(125,125,125)" fill-opacity="1"></path></g></g><g><g><g><g><g transform="matrix(1,0,0,1,184.6015625,31.057875)"><path transform="matrix(0.017136,0,0,-0.017136,0,0)" d="M263 689C108 689 29 566 29 324C29 207 50 106 85 57C120 8 176 -20 238 -20C389 -20 465 110 465 366C465 585 400 689 263 689ZM245 654C342 654 381 556 381 316C381 103 343 15 251 15C154 15 113 116 113 360C113 571 150 654 245 654Z" stroke="rgb(125,125,125)" stroke-opacity="1" stroke-width="8" fill="rgb(125,125,125)" fill-opacity="1"></path></g></g></g></g></g><g><g transform="matrix(1,0,0,1,194.625,26.7378125)"><path transform="matrix(0.024480000000000002,0,0,-0.024480000000000002,0,0)" d="M146 266C146 526 243 632 301 700L282 726C225 675 60 542 60 266C60 159 85 58 133 -32C168 -99 200 -138 282 -215L301 -194C255 -137 146 -15 146 266Z" stroke="rgb(125,125,125)" stroke-opacity="1" stroke-width="8" fill="rgb(125,125,125)" fill-opacity="1"></path></g></g><g><g transform="matrix(1,0,0,1,202.7578125,26.2378125)"><path transform="matrix(0.024480000000000002,0,0,-0.024480000000000002,0,0)" d="M125 390L69 107C68 99 56 61 56 31C56 6 67 -9 86 -9C121 -9 156 11 234 74L265 99L255 117L210 86C181 66 161 56 150 56C141 56 136 64 136 76C136 102 150 183 179 328L192 390L299 390L310 440C272 436 238 434 200 434C216 528 227 577 245 631L234 646C214 634 187 622 156 610L131 440C87 419 61 408 43 403L41 390Z" stroke="rgb(125,125,125)" stroke-opacity="1" stroke-width="8" fill="rgb(125,125,125)" fill-opacity="1"></path></g></g><g><g transform="matrix(1,0,0,1,210.890625,26.7378125)"><path transform="matrix(0.024480000000000002,0,0,-0.024480000000000002,0,0)" d="M51 726L32 700C87 636 187 526 187 266C187 -10 83 -131 32 -194L51 -215C104 -165 273 -23 273 265C273 542 108 675 51 726Z" stroke="rgb(125,125,125)" stroke-opacity="1" stroke-width="8" fill="rgb(125,125,125)" fill-opacity="1"></path></g></g></g></g><g><g><g><g transform="matrix(1,0,0,1,182.109375,145.9253125)"><path transform="matrix(0.024480000000000002,0,0,-0.024480000000000002,0,0)" d="M221 385L263 613C270 652 277 658 314 661L356 664L359 692L335 692L245 689C229 689 211 689 168 690L104 692L101 664L148 662C172 661 183 653 183 635C183 621 179 590 174 559L100 125C83 33 82 32 42 28L1 25L-3 -3L39 -2C87 -1 110 0 129 0L226 -3L252 -3L255 25L206 28C179 30 170 37 170 58C170 67 171 74 174 93L216 340L277 341C339 342 381 343 400 343C419 343 460 342 523 341L584 340L544 125C535 76 528 48 523 42C519 34 508 30 486 28L436 25L432 -3L488 -2C532 -1 562 0 573 0C589 0 620 -1 663 -2L705 -3L708 25L650 28C624 29 614 37 614 58C614 67 615 76 618 93L710 613C717 652 723 657 761 661L797 664L800 692L784 692L693 689C678 689 657 689 613 690L550 692L547 664L595 662C619 661 630 653 630 635C630 621 626 589 621 559L591 385Z" stroke="rgb(125,125,125)" stroke-opacity="1" stroke-width="8" fill="rgb(125,125,125)" fill-opacity="1"></path></g></g><g><g transform="matrix(1,0,0,1,201.1328125,146.4253125)"><path transform="matrix(0.024480000000000002,0,0,-0.024480000000000002,0,0)" d="M146 266C146 526 243 632 301 700L282 726C225 675 60 542 60 266C60 159 85 58 133 -32C168 -99 200 -138 282 -215L301 -194C255 -137 146 -15 146 266Z" stroke="rgb(125,125,125)" stroke-opacity="1" stroke-width="8" fill="rgb(125,125,125)" fill-opacity="1"></path></g></g><g><g transform="matrix(1,0,0,1,209.265625,145.9253125)"><path transform="matrix(0.024480000000000002,0,0,-0.024480000000000002,0,0)" d="M125 390L69 107C68 99 56 61 56 31C56 6 67 -9 86 -9C121 -9 156 11 234 74L265 99L255 117L210 86C181 66 161 56 150 56C141 56 136 64 136 76C136 102 150 183 179 328L192 390L299 390L310 440C272 436 238 434 200 434C216 528 227 577 245 631L234 646C214 634 187 622 156 610L131 440C87 419 61 408 43 403L41 390Z" stroke="rgb(125,125,125)" stroke-opacity="1" stroke-width="8" fill="rgb(125,125,125)" fill-opacity="1"></path></g></g><g><g transform="matrix(1,0,0,1,217.3984375,145.9253125)"><path transform="matrix(0.024480000000000002,0,0,-0.024480000000000002,0,0)" d="M204 123C177 114 159 108 106 93C99 17 74 -48 16 -144L30 -155L71 -136C152 -31 190 32 218 109Z" stroke="rgb(125,125,125)" stroke-opacity="1" stroke-width="8" fill="rgb(125,125,125)" fill-opacity="1"></path></g></g><g><g transform="matrix(1,0,0,1,228.390625,145.9253125)"><path transform="matrix(0.024480000000000002,0,0,-0.024480000000000002,0,0)" d="M31 148C26 97 20 62 9 16C47 -2 81 -11 116 -11C165 -11 211 7 262 47C313 87 334 124 334 174C334 228 302 257 228 271L185 279C125 290 106 307 106 348C106 401 151 442 208 442C249 442 287 424 303 397L303 342L326 342C330 377 334 404 345 455C306 474 278 482 245 482C193 482 132 452 84 404C58 377 47 352 47 316C47 260 78 228 144 215L207 203C251 195 267 177 267 138C267 73 221 29 150 29C115 29 84 40 56 64L56 148Z" stroke="rgb(125,125,125)" stroke-opacity="1" stroke-width="8" fill="rgb(125,125,125)" fill-opacity="1"></path></g></g><g><g transform="matrix(1,0,0,1,237.890625,146.4253125)"><path transform="matrix(0.024480000000000002,0,0,-0.024480000000000002,0,0)" d="M51 726L32 700C87 636 187 526 187 266C187 -10 83 -131 32 -194L51 -215C104 -165 273 -23 273 265C273 542 108 675 51 726Z" stroke="rgb(125,125,125)" stroke-opacity="1" stroke-width="8" fill="rgb(125,125,125)" fill-opacity="1"></path></g></g></g></g><g><g><g><g transform="matrix(1,0,0,1,208.5,331.6284375)"><path transform="matrix(0.024480000000000002,0,0,-0.024480000000000002,0,0)" d="M154 473C89 473 51 426 18 377C18 371 27 368 30 365L30 366C54 394 74 412 111 412C206 412 215 290 214 220C212 136 203 53 186 -29C140 -86 92 -181 65 -249C69 -257 74 -265 77 -273C98 -268 119 -260 139 -251C165 -183 189 -106 203 -36C387 199 540 317 547 438C550 493 485 453 459 446L459 435C502 284 287 130 220 19L220 23C302 358 258 473 154 473Z" stroke="rgb(125,125,125)" stroke-opacity="1" stroke-width="8" fill="rgb(125,125,125)" fill-opacity="1"></path></g></g><g><g><g><g><g transform="matrix(1,0,0,1,223.4609375,336.4485)"><path transform="matrix(0.017136,0,0,-0.017136,0,0)" d="M418 -3L418 27L366 30C311 33 301 44 301 96L301 700L60 598L67 548L217 614L217 96C217 44 206 33 152 30L96 27L96 -3C250 0 250 0 261 0C292 0 402 -3 418 -3Z" stroke="rgb(125,125,125)" stroke-opacity="1" stroke-width="8" fill="rgb(125,125,125)" fill-opacity="1"></path></g></g></g></g></g><g><g transform="matrix(1,0,0,1,233.484375,332.1284375)"><path transform="matrix(0.024480000000000002,0,0,-0.024480000000000002,0,0)" d="M146 266C146 526 243 632 301 700L282 726C225 675 60 542 60 266C60 159 85 58 133 -32C168 -99 200 -138 282 -215L301 -194C255 -137 146 -15 146 266Z" stroke="rgb(125,125,125)" stroke-opacity="1" stroke-width="8" fill="rgb(125,125,125)" fill-opacity="1"></path></g></g><g><g transform="matrix(1,0,0,1,241.6171875,331.6284375)"><path transform="matrix(0.024480000000000002,0,0,-0.024480000000000002,0,0)" d="M125 390L69 107C68 99 56 61 56 31C56 6 67 -9 86 -9C121 -9 156 11 234 74L265 99L255 117L210 86C181 66 161 56 150 56C141 56 136 64 136 76C136 102 150 183 179 328L192 390L299 390L310 440C272 436 238 434 200 434C216 528 227 577 245 631L234 646C214 634 187 622 156 610L131 440C87 419 61 408 43 403L41 390Z" stroke="rgb(125,125,125)" stroke-opacity="1" stroke-width="8" fill="rgb(125,125,125)" fill-opacity="1"></path></g></g><g><g transform="matrix(1,0,0,1,249.75,332.1284375)"><path transform="matrix(0.024480000000000002,0,0,-0.024480000000000002,0,0)" d="M51 726L32 700C87 636 187 526 187 266C187 -10 83 -131 32 -194L51 -215C104 -165 273 -23 273 265C273 542 108 675 51 726Z" stroke="rgb(125,125,125)" stroke-opacity="1" stroke-width="8" fill="rgb(125,125,125)" fill-opacity="1"></path></g></g></g></g></svg>
</svg>
