<?xml version="1.0" encoding="UTF-8" standalone="no"?>
<!-- Created with Inkscape (http://www.inkscape.org/) -->

<svg
   width="655.32996"
   height="363.65997"
   viewBox="0 0 173.38938 96.218368"
   version="1.1"
   id="svg5"
   xml:space="preserve"
   xmlns="http://www.w3.org/2000/svg"
   xmlns:svg="http://www.w3.org/2000/svg"><defs
     id="defs2" /><g
     id="layer1"
     transform="translate(-2.2478581,-1.33529)"><g
       style="fill:none"
       id="g561"
       transform="matrix(0.26458333,0,0,0.26458333,-7.6740168,-5.3242724)"><svg
         class="role-diagram-draw-area"
         style="overflow:visible"
         version="1.1"
         id="svg484"
         width="100%"
         height="100%"><g
           class="shapes-region"
           style="fill:none;stroke:#000000"
           id="g476"><g
             class="shape"
             id="g356"><polygon
               class="real"
               points="163.5,230 101,378 43,301 "
               style="fill:#8fbcbb;fill-opacity:1;stroke:#7d7d7d;stroke-width:2;stroke-opacity:1"
               id="polygon354" /></g><g
             class="composite-shape"
             id="g360"><path
               class="real"
               d="M 163.5,230 226,378 H 101 Z"
               style="fill:#8fbcbb;fill-opacity:1;stroke:#7d7d7d;stroke-width:2;stroke-opacity:1"
               id="path358" /></g><g
             class="arrow-line"
             id="g364"><path
               class="connection real"
               stroke-dasharray="none"
               d="M 43,301 163.5,230"
               style="fill:none;fill-opacity:1;stroke:#7d7d7d;stroke-width:2;stroke-opacity:1"
               id="path362" /></g><g
             class="arrow-line"
             id="g368"><path
               class="connection real"
               stroke-dasharray="none"
               d="m 43,301 58,77"
               style="fill:none;fill-opacity:1;stroke:#7d7d7d;stroke-width:2;stroke-opacity:1"
               id="path366" /></g><g
             class="arrow-line"
             id="g372"><path
               class="connection real"
               stroke-dasharray="7.5, 6"
               d="m 43,301 183,77"
               style="fill:none;fill-opacity:1;stroke:#7d7d7d;stroke-width:2;stroke-opacity:1"
               id="path370" /></g><g
             class="arrow-line"
             id="g376"><path
               class="connection real"
               stroke-dasharray="none"
               d="M 269.67,148.67 163.5,230"
               style="fill:none;fill-opacity:1;stroke:#7d7d7d;stroke-width:2;stroke-opacity:1"
               id="path374" /></g><g
             class="composite-shape"
             id="g380"><path
               class="real"
               d="m 269.67,148.67 82.33,148 H 227 Z"
               style="fill:#8fbcbb;fill-opacity:1;stroke:#7d7d7d;stroke-width:2;stroke-opacity:1"
               id="path378" /></g><g
             class="shape"
             id="g384"><polygon
               class="real"
               points="352,296.67 269.67,148.67 404.67,128 "
               style="fill:#8fbcbb;fill-opacity:1;stroke:#7d7d7d;stroke-width:2;stroke-opacity:1"
               id="polygon382" /></g><g
             class="shape"
             id="g388"><polygon
               class="real"
               points="433.67,383.33 352,296.67 467.33,278 "
               style="fill:#8fbcbb;fill-opacity:1;stroke:#7d7d7d;stroke-width:2;stroke-opacity:1"
               id="polygon386" /></g><g
             class="arrow-line"
             id="g392"><path
               class="connection real"
               stroke-dasharray="none"
               d="M 467.33,278 556,179.33"
               style="fill:none;fill-opacity:1;stroke:#7d7d7d;stroke-width:2;stroke-opacity:1"
               id="path390" /></g><g
             class="arrow-line"
             id="g396"><path
               class="connection real"
               stroke-dasharray="none"
               d="M 556,179.33 687.33,136.67"
               style="fill:none;fill-opacity:1;stroke:#7d7d7d;stroke-width:2;stroke-opacity:1"
               id="path394" /></g><g
             class="shape"
             id="g400"><polygon
               class="real"
               points="518,125.33 455.33,65 558.67,33.33 "
               style="fill:none;fill-opacity:1;stroke:#7d7d7d;stroke-width:2;stroke-opacity:1"
               id="polygon398" /></g><g
             class="arrow-line"
             id="g404"><path
               class="connection real"
               stroke-dasharray="none"
               d="M 382.67,30.67 455.33,65"
               style="fill:none;fill-opacity:1;stroke:#7d7d7d;stroke-width:2;stroke-opacity:1"
               id="path402" /></g><g
             class="composite-shape"
             id="g408"><path
               class="real"
               d="m 158.5,230 c 0,-2.76 2.24,-5 5,-5 2.76,0 5,2.24 5,5 0,2.76 -2.24,5 -5,5 -2.76,0 -5,-2.24 -5,-5 z"
               style="fill:#7d7d7d;fill-opacity:1;stroke:#7d7d7d;stroke-width:1;stroke-opacity:1"
               id="path406" /></g><g
             class="composite-shape"
             id="g412"><path
               class="real"
               d="m 38,301 c 0,-2.76 2.24,-5 5,-5 2.76,0 5,2.24 5,5 0,2.76 -2.24,5 -5,5 -2.76,0 -5,-2.24 -5,-5 z"
               style="fill:#7d7d7d;fill-opacity:1;stroke:#7d7d7d;stroke-width:1;stroke-opacity:1"
               id="path410" /></g><g
             class="composite-shape"
             id="g416"><path
               class="real"
               d="m 96,378 c 0,-2.76 2.24,-5 5,-5 2.76,0 5,2.24 5,5 0,2.76 -2.24,5 -5,5 -2.76,0 -5,-2.24 -5,-5 z"
               style="fill:#7d7d7d;fill-opacity:1;stroke:#7d7d7d;stroke-width:1;stroke-opacity:1"
               id="path414" /></g><g
             class="composite-shape"
             id="g420"><path
               class="real"
               d="m 221,378 c 0,-2.76 2.24,-5 5,-5 2.76,0 5,2.24 5,5 0,2.76 -2.24,5 -5,5 -2.76,0 -5,-2.24 -5,-5 z"
               style="fill:#7d7d7d;fill-opacity:1;stroke:#7d7d7d;stroke-width:1;stroke-opacity:1"
               id="path418" /></g><g
             class="composite-shape"
             id="g424"><path
               class="real"
               d="m 97.33,136.33 c 0,-2.76 2.24,-5 5,-5 2.76,0 5,2.24 5,5 0,2.76 -2.24,5 -5,5 -2.76,0 -5,-2.24 -5,-5 z"
               style="fill:#7d7d7d;fill-opacity:1;stroke:#7d7d7d;stroke-width:1;stroke-opacity:1"
               id="path422" /></g><g
             class="composite-shape"
             id="g428"><path
               class="real"
               d="m 264.67,148.67 c 0,-2.76 2.24,-5 5,-5 2.76,0 5,2.24 5,5 0,2.76 -2.24,5 -5,5 -2.76,0 -5,-2.24 -5,-5 z"
               style="fill:#7d7d7d;fill-opacity:1;stroke:#7d7d7d;stroke-width:1;stroke-opacity:1"
               id="path426" /></g><g
             class="composite-shape"
             id="g432"><path
               class="real"
               d="m 222,296.67 c 0,-2.76 2.24,-5 5,-5 2.76,0 5,2.24 5,5 0,2.76 -2.24,5 -5,5 -2.76,0 -5,-2.24 -5,-5 z"
               style="fill:#7d7d7d;fill-opacity:1;stroke:#7d7d7d;stroke-width:1;stroke-opacity:1"
               id="path430" /></g><g
             class="composite-shape"
             id="g436"><path
               class="real"
               d="m 347,296.67 c 0,-2.76 2.24,-5 5,-5 2.76,0 5,2.24 5,5 0,2.76 -2.24,5 -5,5 -2.76,0 -5,-2.24 -5,-5 z"
               style="fill:#7d7d7d;fill-opacity:1;stroke:#7d7d7d;stroke-width:1;stroke-opacity:1"
               id="path434" /></g><g
             class="composite-shape"
             id="g440"><path
               class="real"
               d="m 399.67,128 c 0,-2.76 2.24,-5 5,-5 2.76,0 5,2.24 5,5 0,2.76 -2.24,5 -5,5 -2.76,0 -5,-2.24 -5,-5 z"
               style="fill:#7d7d7d;fill-opacity:1;stroke:#7d7d7d;stroke-width:1;stroke-opacity:1"
               id="path438" /></g><g
             class="composite-shape"
             id="g444"><path
               class="real"
               d="m 428.67,383.33 c 0,-2.76 2.24,-5 5,-5 2.76,0 5,2.24 5,5 0,2.76 -2.24,5 -5,5 -2.76,0 -5,-2.24 -5,-5 z"
               style="fill:#7d7d7d;fill-opacity:1;stroke:#7d7d7d;stroke-width:1;stroke-opacity:1"
               id="path442" /></g><g
             class="composite-shape"
             id="g448"><path
               class="real"
               d="m 462.33,278 c 0,-2.76 2.24,-5 5,-5 2.76,0 5,2.24 5,5 0,2.76 -2.24,5 -5,5 -2.76,0 -5,-2.24 -5,-5 z"
               style="fill:#7d7d7d;fill-opacity:1;stroke:#7d7d7d;stroke-width:1;stroke-opacity:1"
               id="path446" /></g><g
             class="composite-shape"
             id="g452"><path
               class="real"
               d="m 551,179.33 c 0,-2.76 2.24,-5 5,-5 2.76,0 5,2.24 5,5 0,2.76 -2.24,5 -5,5 -2.76,0 -5,-2.24 -5,-5 z"
               style="fill:#7d7d7d;fill-opacity:1;stroke:#7d7d7d;stroke-width:1;stroke-opacity:1"
               id="path450" /></g><g
             class="composite-shape"
             id="g456"><path
               class="real"
               d="m 682.33,136.67 c 0,-2.76 2.24,-5 5,-5 2.76,0 5,2.24 5,5 0,2.76 -2.24,5 -5,5 -2.76,0 -5,-2.24 -5,-5 z"
               style="fill:#7d7d7d;fill-opacity:1;stroke:#7d7d7d;stroke-width:1;stroke-opacity:1"
               id="path454" /></g><g
             class="composite-shape"
             id="g460"><path
               class="real"
               d="m 513,125.33 c 0,-2.76 2.24,-5 5,-5 2.76,0 5,2.24 5,5 0,2.76 -2.24,5 -5,5 -2.76,0 -5,-2.24 -5,-5 z"
               style="fill:#7d7d7d;fill-opacity:1;stroke:#7d7d7d;stroke-width:1;stroke-opacity:1"
               id="path458" /></g><g
             class="composite-shape"
             id="g464"><path
               class="real"
               d="m 553.67,33.33 c 0,-2.76 2.24,-5 5,-5 2.76,0 5,2.24 5,5 0,2.76 -2.24,5 -5,5 -2.76,0 -5,-2.24 -5,-5 z"
               style="fill:#7d7d7d;fill-opacity:1;stroke:#7d7d7d;stroke-width:1;stroke-opacity:1"
               id="path462" /></g><g
             class="composite-shape"
             id="g468"><path
               class="real"
               d="m 450.33,65 c 0,-2.76 2.24,-5 5,-5 2.76,0 5,2.24 5,5 0,2.76 -2.24,5 -5,5 -2.76,0 -5,-2.24 -5,-5 z"
               style="fill:#7d7d7d;fill-opacity:1;stroke:#7d7d7d;stroke-width:1;stroke-opacity:1"
               id="path466" /></g><g
             class="composite-shape"
             id="g472"><path
               class="real"
               d="m 377.67,30.67 c 0,-2.76 2.24,-5 5,-5 2.76,0 5,2.24 5,5 0,2.76 -2.24,5 -5,5 -2.76,0 -5,-2.24 -5,-5 z"
               style="fill:#7d7d7d;fill-opacity:1;stroke:#7d7d7d;stroke-width:1;stroke-opacity:1"
               id="path470" /></g><g
             id="g474" /></g><g
           id="g478" /><g
           id="g480" /><g
           id="g482" /></svg><svg
         width="700"
         height="398"
         style="font-family:Asana-Math, Asana"
         version="1.1"
         id="svg486" /></g></g></svg>
