<?xml version="1.0" encoding="UTF-8" standalone="no"?>
<!-- Created with Inkscape (http://www.inkscape.org/) -->

<svg
   width="135.46666mm"
   height="135.46666mm"
   viewBox="0 0 135.46666 135.46666"
   version="1.1"
   id="svg5"
   xml:space="preserve"
   inkscape:version="0.0"
   sodipodi:docname="/home/michael/Documents/InkscapeProjects/favicon.svg"
   xmlns:inkscape="http://www.inkscape.org/namespaces/inkscape"
   xmlns:sodipodi="http://sodipodi.sourceforge.net/DTD/sodipodi-0.dtd"
   xmlns="http://www.w3.org/2000/svg"
   xmlns:svg="http://www.w3.org/2000/svg"
   xmlns:rdf="http://www.w3.org/1999/02/22-rdf-syntax-ns#"
   xmlns:cc="http://creativecommons.org/ns#"
   xmlns:dc="http://purl.org/dc/elements/1.1/"><sodipodi:namedview
     id="namedview7"
     pagecolor="#505050"
     bordercolor="#eeeeee"
     borderopacity="1"
     inkscape:showpageshadow="0"
     inkscape:pageopacity="0"
     inkscape:pagecheckerboard="0"
     inkscape:deskcolor="#d1d1d1"
     inkscape:document-units="px"
     showgrid="false"
     inkscape:zoom="1.0381216"
     inkscape:cx="346.29853"
     inkscape:cy="704.1564"
     inkscape:window-width="1920"
     inkscape:window-height="965"
     inkscape:window-x="1920"
     inkscape:window-y="32"
     inkscape:window-maximized="1"
     inkscape:current-layer="layer2" /><defs
     id="defs2" /><g
     inkscape:groupmode="layer"
     id="layer2"
     inkscape:label="Layer 2"
     transform="translate(-33.004334,-115.93253)"><ellipse
       style="fill:#ffffff;stroke-width:0.388663"
       id="path7842"
       cx="100.56496"
       cy="183.88487"
       rx="67.063789"
       ry="67.017853"
       inkscape:export-filename="./path7842.svg"
       inkscape:export-xdpi="96"
       inkscape:export-ydpi="96" /></g><g
     inkscape:label="Layer 1"
     inkscape:groupmode="layer"
     id="layer1"
     transform="translate(-33.004334,-115.93253)"><path
       style="fill:#000000;stroke-width:0.264852"
       d="M 94.718212,251.14571 C 73.206402,249.23376 53.410116,236.68386 42.348638,217.94589 30.724055,198.25402 29.892951,173.84982 40.14961,153.37452 c 5.503067,-10.98574 14.761711,-21.05879 25.278244,-27.50175 18.585903,-11.38667 41.712756,-13.10035 61.728816,-4.57407 20.83185,8.8738 36.01126,27.66688 40.21144,49.78434 1.11955,5.89539 1.43428,14.8131 0.72415,20.51904 -2.52111,20.25732 -13.53321,37.81264 -30.76283,49.04157 -12.23719,7.97525 -27.82256,11.81646 -42.611218,10.50206 z m 10.288118,-5.25499 c 0,-1.6734 0.4021,-2.54293 1.35909,-2.93906 1.58858,-0.65756 2.88001,0.54389 2.88001,2.67935 0,0.95229 0.0563,1.03945 0.59612,0.92264 0.32787,-0.0709 1.60953,-0.31296 2.84815,-0.5378 1.2386,-0.22485 2.84813,-0.56404 3.57673,-0.75376 l 1.32473,-0.34492 0.14285,-21.29612 c 0.12873,-19.19003 0.18774,-21.42482 0.59665,-22.59756 1.35207,-3.87765 4.32049,-6.87368 8.09542,-8.17071 1.06148,-0.36472 2.51953,-0.55477 5.00471,-0.65233 l 3.50684,-0.13767 0.62911,-1.37321 c 1.88032,-4.10437 6.94679,-5.97139 11.05862,-4.07518 5.29923,2.44379 6.58734,9.48432 2.48522,13.58363 -2.3927,2.39106 -6.40741,3.11768 -9.39666,1.7007 -1.88257,-0.89239 -3.35176,-2.35265 -4.17502,-4.14966 l -0.65695,-1.43398 -3.21406,0.0977 c -2.78183,0.0846 -3.4131,0.19034 -4.69416,0.78619 -1.87843,0.87369 -3.30073,2.29325 -4.18443,4.17637 l -0.69411,1.47909 -0.0726,20.32046 c -0.0399,11.17626 -0.0132,20.32047 0.0593,20.32047 0.44914,0 4.75657,-1.89285 7.62934,-3.35263 12.01741,-6.10657 21.99729,-16.21512 28.03163,-28.3931 9.13119,-18.42776 8.72683,-40.239 -1.08013,-58.26298 -6.34753,-11.66594 -16.45489,-21.3177 -28.2834,-27.00842 l -2.194,-1.05555 0.0744,15.28444 0.0745,15.28445 0.6941,1.47908 c 0.8837,1.88312 2.30601,3.30268 4.18443,4.17637 1.28106,0.59585 1.91232,0.70158 4.69416,0.78619 l 3.21406,0.0977 0.65695,-1.43398 c 0.82326,-1.79701 2.29245,-3.25727 4.17503,-4.14966 2.98925,-1.41698 7.00395,-0.69036 9.39666,1.7007 3.20019,3.19801 3.20019,8.69864 0,11.89664 -2.39271,2.39105 -6.40741,3.11768 -9.39666,1.7007 -1.86329,-0.88324 -3.35022,-2.34927 -4.14719,-4.08889 l -0.6291,-1.37321 -3.50685,-0.13767 c -2.48518,-0.0976 -3.94322,-0.28761 -5.0047,-0.65233 -3.77643,-1.29754 -6.75201,-4.30185 -8.0926,-8.17071 -0.39903,-1.1516 -0.46773,-3.19035 -0.59665,-17.70703 l -0.14568,-16.40559 -2.38449,-0.74525 c -6.1855,-1.93323 -11.49614,-2.69347 -18.81099,-2.69286 -5.982962,5e-4 -9.15466,0.34679 -14.365369,1.56845 -23.803531,5.5808 -42.463559,24.58129 -47.637497,48.50669 l -0.585148,2.70585 24.140538,0.0754 c 23.693087,0.074 24.168303,0.0857 25.638402,0.62586 3.856687,1.4173 6.738853,4.33763 8.09925,8.20652 0.422064,1.20031 0.463765,3.78586 0.536586,33.27143 l 0.07895,31.97 h 4.232938 4.23291 z m 1.14487,-7.47576 c -1.46341,-0.70702 -1.33507,-3.02962 0.20258,-3.6661 2.35941,-0.97664 3.99176,2.62415 1.66903,3.68172 -0.78361,0.3568 -1.10634,0.3541 -1.87161,-0.0156 z m 0,-8.47237 c -1.46341,-0.70703 -1.33507,-3.02963 0.20258,-3.66611 2.35941,-0.97664 3.99176,2.62415 1.66903,3.68173 -0.78361,0.35679 -1.10634,0.35409 -1.87161,-0.0156 z m -0.004,-8.73866 c -0.31936,-0.15423 -0.67703,-0.47381 -0.79482,-0.71018 -0.11781,-0.23637 -0.27379,-13.83334 -0.34665,-30.21548 l -0.13247,-29.78571 -0.69411,-1.47909 c -0.88369,-1.8831 -2.306,-3.30267 -4.18442,-4.17637 -1.281063,-0.59584 -1.912333,-0.70156 -4.694168,-0.78617 l -3.214058,-0.0978 -0.65695,1.434 c -0.823264,1.79701 -2.292446,3.25726 -4.175026,4.14965 -2.989249,1.41698 -7.003958,0.69036 -9.396657,-1.7007 -3.200193,-3.19801 -3.200193,-8.69863 0,-11.89663 2.392699,-2.39107 6.407408,-3.11769 9.396657,-1.70071 1.863292,0.88325 3.350215,2.34927 4.147185,4.08888 l 0.629109,1.37322 3.506842,0.13767 c 2.485177,0.0976 3.943227,0.28761 5.004706,0.65232 3.77318,1.29644 6.73301,4.28257 8.09878,8.17073 0.42056,1.19727 0.46354,3.68517 0.53705,31.08248 0.0566,21.10428 -0.005,29.98452 -0.20958,30.47946 -0.27742,0.66928 -1.25023,1.31648 -1.92205,1.27871 -0.17529,-0.01 -0.58001,-0.1441 -0.89938,-0.29832 z M 85.487647,155.76285 c 2.722192,-1.13662 3.385807,-4.703 1.268771,-6.81858 -1.718568,-1.71739 -4.172527,-1.71739 -5.891094,0 -3.276436,3.27419 0.338772,8.60713 4.622323,6.81858 z m 6.739404,59.46922 -0.07046,-31.44046 -0.694103,-1.47909 c -0.882275,-1.88007 -2.303073,-3.2999 -4.184436,-4.18157 l -1.480101,-0.69363 -24.15095,-0.0716 -24.150951,-0.0716 -0.194908,2.58682 c -0.350111,4.64665 0.209148,11.98286 1.307294,17.14873 0.526288,2.47575 2.080076,7.55445 3.083486,10.07866 4.665163,11.73582 13.115147,22.1507 23.799083,29.33313 3.143166,2.11304 8.402824,4.89963 11.77374,6.23779 1.130739,0.44887 2.116699,0.81612 2.191027,0.81612 0.07432,0 0.101031,-5.80821 0.05934,-12.90714 l -0.0758,-12.90713 -0.694103,-1.47909 c -0.8837,-1.88311 -2.306006,-3.30268 -4.184436,-4.17637 -1.281057,-0.59585 -1.912324,-0.70158 -4.69416,-0.78618 l -3.214058,-0.0977 -0.65695,1.43398 c -0.823264,1.79702 -2.292446,3.25727 -4.175025,4.14966 -2.989249,1.41699 -7.003959,0.69036 -9.396658,-1.7007 -3.200194,-3.198 -3.200194,-8.69863 0,-11.89664 2.392699,-2.39105 6.407409,-3.11767 9.396658,-1.7007 1.86329,0.88325 3.350214,2.34927 4.147184,4.08889 l 0.629109,1.37321 3.506842,0.14467 c 2.084606,0.086 4.035022,0.31492 4.809181,0.56446 3.762635,1.21285 6.803276,4.19825 8.205266,8.0562 0.51504,1.41726 0.551429,2.23487 0.684571,15.38047 l 0.140617,13.88365 1.457188,0.37567 c 1.179297,0.30403 5.86549,1.25125 6.694048,1.35305 0.111616,0.0137 0.171228,-14.12327 0.132472,-31.41554 z m -32.173965,-2.28066 c 2.722192,-1.13662 3.385806,-4.70299 1.268771,-6.81857 -2.976665,-2.97463 -7.854448,-0.31027 -7.071113,3.8624 0.46794,2.49263 3.370654,3.9715 5.802342,2.95617 z m 84.781874,-14.82666 c 2.7222,-1.13663 3.38581,-4.70299 1.26878,-6.81858 -2.97667,-2.97463 -7.85445,-0.31026 -7.07112,3.8624 0.46794,2.49264 3.37065,3.97151 5.80234,2.95618 z m 4.2391,-29.65333 c 2.72219,-1.13663 3.3858,-4.70299 1.26877,-6.81858 -1.71857,-1.71739 -4.17252,-1.71739 -5.89109,0 -3.27644,3.27419 0.33876,8.60713 4.62232,6.81858 z"
       id="path7638" /></g><metadata
     id="metadata4047"><rdf:RDF><cc:License
         rdf:about="http://creativecommons.org/licenses/by/4.0/"><cc:permits
           rdf:resource="http://creativecommons.org/ns#Reproduction" /><cc:permits
           rdf:resource="http://creativecommons.org/ns#Distribution" /><cc:requires
           rdf:resource="http://creativecommons.org/ns#Notice" /><cc:requires
           rdf:resource="http://creativecommons.org/ns#Attribution" /><cc:permits
           rdf:resource="http://creativecommons.org/ns#DerivativeWorks" /></cc:License><cc:Work
         rdf:about=""><cc:license
           rdf:resource="http://creativecommons.org/licenses/by/4.0/" /><dc:creator><cc:Agent><dc:title>Michael Lilley</dc:title></cc:Agent></dc:creator></cc:Work></rdf:RDF></metadata></svg>
